
<svg xmlns="http://www.w3.org/2000/svg" width="137" height="37" fill="none" viewBox="0 0 137 37"><path fill="#06fc88" d="M40.616 0h-5.305v5.305h5.305zM107.562 14.263h-6.046v6.045h6.046z"/><path fill="#ffffff" d="M125.748.025 113.336 0v5.305h3.578l-9.352 24.232h6.563l2.122-5.601h12.092l2.048 5.6H137zm-7.773 18.605 4.318-11.523 4.244 11.523zM24.232 0H0v5.305h9.204v24.257h5.823V5.305h9.205z"/><path fill="#ffffff" d="M24.231 10.808V7.897h-5.65v21.665h5.773v-9.574c0-5.774 2.394-6.786 8.193-6.786v-5.33c-1.876-.37-5.38-.543-8.316 2.936M40.716 7.897h-5.503v21.665h5.503zM56.113 7.28c-2.838 0-5.157 1.16-7.082 3.85h-.074V7.896h-5.429v28.772h5.503v-9.895c1.234 1.776 3.38 3.454 6.687 3.454 5.206 0 9.944-4.318 9.944-11.573 0-6.243-3.578-11.375-9.55-11.375m-1.654 17.742c-3.183 0-5.552-2.567-5.552-6.243s2.37-6.293 5.552-6.293c3.184 0 5.503 2.591 5.503 6.293 0 3.676-2.27 6.243-5.503 6.243M87.426 25.342c-2.863 0-5.355-1.776-5.824-5.034h16.064v-1.48c0-7.97-5.108-11.524-10.586-11.524-6.415 0-10.98 4.886-10.98 11.573s4.885 11.376 11.375 11.376c5.108 0 8.81-2.764 10.265-6.293l-5.157-2.048c-.962 2.221-2.887 3.43-5.157 3.43m-.395-13.399c2.468 0 4.688 1.283 5.083 4.615h-10.24c.567-2.715 2.344-4.615 5.157-4.615M64.601 0v5.305h3.554v24.257h5.502V0z"/></svg>
